<svg
  class="navigation__logo-img"
  role="img"
  version="1.0"
  xmlns="http://www.w3.org/2000/svg"
  viewBox="0 0 200.000000 225.000000"
>
  <title>Logo</title>
  <g
    transform="translate(0.000000,225.000000) scale(0.100000,-0.100000)"
    fill="currentColor"
    stroke="none"
  >
    <path
      d="M535 1935 l-470 -272 0 -542 0 -543 465 -269 c256 -148 470 -269 475
      -269 6 0 219 121 475 269 l465 269 0 543 0 543 -245 141 c-135 78 -346 200
      -470 271 l-225 130 -470 -271z m865 -129 l385 -223 0 -462 0 -462 -389 -225
      c-213 -123 -389 -224 -391 -224 -2 0 -178 101 -391 224 l-389 225 0 462 0 462
      385 223 c212 123 390 223 395 223 6 0 183 -100 395 -223z"
    />
    <path
      d="M780 1480 l0 -50 155 0 155 0 0 -267 c0 -294 -2 -301 -60 -341 -30
      -21 -43 -23 -97 -19 -41 3 -80 14 -113 31 l-50 26 0 -55 0 -56 48 -22 c34 -15
      68 -21 122 -21 94 -1 156 22 204 74 60 67 66 105 66 447 l0 303 -215 0 -215 0
      0 -50z"
    />
  </g>
</svg>